<svg width="208" height="22" viewBox="0 0 208 22" fill="none" xmlns="http://www.w3.org/2000/svg">
<path d="M4.49805 19H1.5293L1.54883 17.4668H4.49805C5.51367 17.4668 6.36003 17.2552 7.03711 16.832C7.71419 16.4023 8.22201 15.8034 8.56055 15.0352C8.9056 14.2604 9.07812 13.3555 9.07812 12.3203V11.4512C9.07812 10.6374 8.98047 9.91471 8.78516 9.2832C8.58984 8.64518 8.30339 8.10807 7.92578 7.67188C7.54818 7.22917 7.08594 6.89388 6.53906 6.66602C5.9987 6.43815 5.37695 6.32422 4.67383 6.32422H1.4707V4.78125H4.67383C5.60482 4.78125 6.45443 4.9375 7.22266 5.25C7.99089 5.55599 8.65169 6.00195 9.20508 6.58789C9.76497 7.16732 10.1947 7.87044 10.4941 8.69727C10.7936 9.51758 10.9434 10.4421 10.9434 11.4707V12.3203C10.9434 13.349 10.7936 14.2767 10.4941 15.1035C10.1947 15.9238 9.76172 16.6237 9.19531 17.2031C8.63542 17.7826 7.95833 18.2285 7.16406 18.541C6.3763 18.847 5.48763 19 4.49805 19ZM2.53516 4.78125V19H0.650391V4.78125H2.53516ZM21.9102 4.78125H23.7852V14.4004C23.7852 15.4681 23.5475 16.3568 23.0723 17.0664C22.597 17.776 21.9655 18.3099 21.1777 18.668C20.3965 19.0195 19.5469 19.1953 18.6289 19.1953C17.6654 19.1953 16.793 19.0195 16.0117 18.668C15.237 18.3099 14.6217 17.776 14.166 17.0664C13.7168 16.3568 13.4922 15.4681 13.4922 14.4004V4.78125H15.3574V14.4004C15.3574 15.1426 15.4941 15.7546 15.7676 16.2363C16.041 16.7181 16.4219 17.0762 16.9102 17.3105C17.4049 17.5449 17.9779 17.6621 18.6289 17.6621C19.2865 17.6621 19.8594 17.5449 20.3477 17.3105C20.8424 17.0762 21.2266 16.7181 21.5 16.2363C21.7734 15.7546 21.9102 15.1426 21.9102 14.4004V4.78125ZM17.6426 3.83398L19.5371 0.962891H21.7148L19.0977 3.83398H17.6426ZM31.334 16.8418L35.5234 4.78125H37.5645L32.3008 19H30.8457L31.334 16.8418ZM27.418 4.78125L31.5684 16.8418L32.0859 19H30.6309L25.377 4.78125H27.418ZM41.5 4.78125V19H39.6152V4.78125H41.5ZM48.7754 19H45.8066L45.8262 17.4668H48.7754C49.791 17.4668 50.6374 17.2552 51.3145 16.832C51.9915 16.4023 52.4993 15.8034 52.8379 15.0352C53.1829 14.2604 53.3555 13.3555 53.3555 12.3203V11.4512C53.3555 10.6374 53.2578 9.91471 53.0625 9.2832C52.8672 8.64518 52.5807 8.10807 52.2031 7.67188C51.8255 7.22917 51.3633 6.89388 50.8164 6.66602C50.276 6.43815 49.6543 6.32422 48.9512 6.32422H45.748V4.78125H48.9512C49.8822 4.78125 50.7318 4.9375 51.5 5.25C52.2682 5.55599 52.929 6.00195 53.4824 6.58789C54.0423 7.16732 54.472 7.87044 54.7715 8.69727C55.071 9.51758 55.2207 10.4421 55.2207 11.4707V12.3203C55.2207 13.349 55.071 14.2767 54.7715 15.1035C54.472 15.9238 54.0391 16.6237 53.4727 17.2031C52.9128 17.7826 52.2357 18.2285 51.4414 18.541C50.6536 18.847 49.765 19 48.7754 19ZM46.8125 4.78125V19H44.9277V4.78125H46.8125ZM63.1016 6.04102L58.3945 19H56.4707L61.8906 4.78125H63.1309L63.1016 6.04102ZM67.0469 19L62.3301 6.04102L62.3008 4.78125H63.541L68.9805 19H67.0469ZM66.8027 13.7363V15.2793H58.8145V13.7363H66.8027ZM78.4629 15.4062C78.4629 15.0742 78.4108 14.7812 78.3066 14.5273C78.209 14.2669 78.0332 14.0326 77.7793 13.8242C77.5319 13.6159 77.1868 13.4173 76.7441 13.2285C76.3079 13.0397 75.7546 12.8477 75.084 12.6523C74.3809 12.444 73.7461 12.2129 73.1797 11.959C72.6133 11.6986 72.1283 11.4023 71.7246 11.0703C71.321 10.7383 71.0117 10.3574 70.7969 9.92773C70.582 9.49805 70.4746 9.00651 70.4746 8.45312C70.4746 7.89974 70.5885 7.38867 70.8164 6.91992C71.0443 6.45117 71.3698 6.04427 71.793 5.69922C72.2227 5.34766 72.7337 5.07422 73.3262 4.87891C73.9186 4.68359 74.5794 4.58594 75.3086 4.58594C76.3763 4.58594 77.2812 4.79102 78.0234 5.20117C78.7721 5.60482 79.3418 6.13542 79.7324 6.79297C80.123 7.44401 80.3184 8.14062 80.3184 8.88281H78.4434C78.4434 8.34896 78.3294 7.87695 78.1016 7.4668C77.8737 7.05013 77.5286 6.72461 77.0664 6.49023C76.6042 6.24935 76.0182 6.12891 75.3086 6.12891C74.638 6.12891 74.0846 6.22982 73.6484 6.43164C73.2122 6.63346 72.8867 6.9069 72.6719 7.25195C72.4635 7.59701 72.3594 7.99089 72.3594 8.43359C72.3594 8.73307 72.4212 9.00651 72.5449 9.25391C72.6751 9.49479 72.8737 9.7194 73.1406 9.92773C73.4141 10.1361 73.7591 10.3281 74.1758 10.5039C74.599 10.6797 75.1035 10.849 75.6895 11.0117C76.4967 11.2396 77.1934 11.4935 77.7793 11.7734C78.3652 12.0534 78.847 12.3691 79.2246 12.7207C79.6087 13.0658 79.8919 13.4596 80.0742 13.9023C80.263 14.3385 80.3574 14.8333 80.3574 15.3867C80.3574 15.9661 80.2402 16.4902 80.0059 16.959C79.7715 17.4277 79.4362 17.8281 79 18.1602C78.5638 18.4922 78.0397 18.7493 77.4277 18.9316C76.8223 19.1074 76.1452 19.1953 75.3965 19.1953C74.7389 19.1953 74.0911 19.1042 73.4531 18.9219C72.8216 18.7396 72.2454 18.4661 71.7246 18.1016C71.2103 17.737 70.7969 17.2878 70.4844 16.7539C70.1784 16.2135 70.0254 15.5885 70.0254 14.8789H71.9004C71.9004 15.3672 71.9948 15.7871 72.1836 16.1387C72.3724 16.4837 72.6296 16.7702 72.9551 16.998C73.2871 17.2259 73.6615 17.3952 74.0781 17.5059C74.5013 17.61 74.9408 17.6621 75.3965 17.6621C76.054 17.6621 76.6107 17.571 77.0664 17.3887C77.5221 17.2064 77.8672 16.946 78.1016 16.6074C78.3424 16.2689 78.4629 15.8685 78.4629 15.4062ZM89.6055 4.78125V19H87.7207V4.78125H89.6055ZM95.5625 11.1777V12.7207H89.1953V11.1777H95.5625ZM96.5293 4.78125V6.32422H89.1953V4.78125H96.5293ZM98.7754 4.78125H103.482C104.55 4.78125 105.452 4.94401 106.188 5.26953C106.93 5.59505 107.493 6.07682 107.877 6.71484C108.268 7.34635 108.463 8.12435 108.463 9.04883C108.463 9.69987 108.329 10.2956 108.062 10.8359C107.802 11.3698 107.424 11.8255 106.93 12.2031C106.441 12.5742 105.855 12.8509 105.172 13.0332L104.645 13.2383H100.221L100.201 11.7051H103.541C104.218 11.7051 104.781 11.5879 105.23 11.3535C105.68 11.1126 106.018 10.7904 106.246 10.3867C106.474 9.98307 106.588 9.53711 106.588 9.04883C106.588 8.50195 106.48 8.02344 106.266 7.61328C106.051 7.20312 105.712 6.88737 105.25 6.66602C104.794 6.43815 104.205 6.32422 103.482 6.32422H100.66V19H98.7754V4.78125ZM107.086 19L103.629 12.5547L105.592 12.5449L109.098 18.8828V19H107.086ZM120.133 17.4668V19H112.604V17.4668H120.133ZM112.984 4.78125V19H111.1V4.78125H112.984ZM119.137 10.8945V12.4277H112.604V10.8945H119.137ZM120.035 4.78125V6.32422H112.604V4.78125H120.035ZM129.762 17.3691L133.375 20.2305L132.105 21.4023L128.551 18.5801L129.762 17.3691ZM133.326 11.4414V12.3398C133.326 13.4076 133.193 14.3646 132.926 15.2109C132.659 16.0573 132.275 16.7767 131.773 17.3691C131.272 17.9616 130.67 18.4141 129.967 18.7266C129.27 19.0391 128.489 19.1953 127.623 19.1953C126.783 19.1953 126.012 19.0391 125.309 18.7266C124.612 18.4141 124.007 17.9616 123.492 17.3691C122.984 16.7767 122.59 16.0573 122.311 15.2109C122.031 14.3646 121.891 13.4076 121.891 12.3398V11.4414C121.891 10.3737 122.027 9.41992 122.301 8.58008C122.581 7.73372 122.975 7.01432 123.482 6.42188C123.99 5.82292 124.592 5.36719 125.289 5.05469C125.992 4.74219 126.764 4.58594 127.604 4.58594C128.469 4.58594 129.254 4.74219 129.957 5.05469C130.66 5.36719 131.262 5.82292 131.764 6.42188C132.265 7.01432 132.649 7.73372 132.916 8.58008C133.189 9.41992 133.326 10.3737 133.326 11.4414ZM131.461 12.3398V11.4219C131.461 10.5755 131.373 9.82682 131.197 9.17578C131.028 8.52474 130.777 7.97786 130.445 7.53516C130.113 7.09245 129.71 6.75716 129.234 6.5293C128.759 6.30143 128.215 6.1875 127.604 6.1875C127.024 6.1875 126.497 6.30143 126.021 6.5293C125.553 6.75716 125.149 7.09245 124.811 7.53516C124.472 7.97786 124.212 8.52474 124.029 9.17578C123.847 9.82682 123.756 10.5755 123.756 11.4219V12.3398C123.756 13.1927 123.847 13.9479 124.029 14.6055C124.212 15.2565 124.472 15.8066 124.811 16.2559C125.156 16.6986 125.566 17.0339 126.041 17.2617C126.516 17.4896 127.044 17.6035 127.623 17.6035C128.235 17.6035 128.779 17.4896 129.254 17.2617C129.729 17.0339 130.13 16.6986 130.455 16.2559C130.787 15.8066 131.038 15.2565 131.207 14.6055C131.376 13.9479 131.461 13.1927 131.461 12.3398ZM144.371 4.78125H146.246V14.4004C146.246 15.4681 146.008 16.3568 145.533 17.0664C145.058 17.776 144.426 18.3099 143.639 18.668C142.857 19.0195 142.008 19.1953 141.09 19.1953C140.126 19.1953 139.254 19.0195 138.473 18.668C137.698 18.3099 137.083 17.776 136.627 17.0664C136.178 16.3568 135.953 15.4681 135.953 14.4004V4.78125H137.818V14.4004C137.818 15.1426 137.955 15.7546 138.229 16.2363C138.502 16.7181 138.883 17.0762 139.371 17.3105C139.866 17.5449 140.439 17.6621 141.09 17.6621C141.747 17.6621 142.32 17.5449 142.809 17.3105C143.303 17.0762 143.688 16.7181 143.961 16.2363C144.234 15.7546 144.371 15.1426 144.371 14.4004V4.78125ZM158.238 17.4668V19H150.709V17.4668H158.238ZM151.09 4.78125V19H149.205V4.78125H151.09ZM157.242 10.8945V12.4277H150.709V10.8945H157.242ZM158.141 4.78125V6.32422H150.709V4.78125H158.141ZM171.51 4.78125V19H169.615L162.457 8.0332V19H160.572V4.78125H162.457L169.645 15.7773V4.78125H171.51ZM179.811 4.78125V19H177.955V4.78125H179.811ZM184.381 4.78125V6.32422H173.395V4.78125H184.381ZM195.523 17.4668V19H187.994V17.4668H195.523ZM188.375 4.78125V19H186.49V4.78125H188.375ZM194.527 10.8945V12.4277H187.994V10.8945H194.527ZM195.426 4.78125V6.32422H187.994V4.78125H195.426ZM205.436 15.4062C205.436 15.0742 205.383 14.7812 205.279 14.5273C205.182 14.2669 205.006 14.0326 204.752 13.8242C204.505 13.6159 204.16 13.4173 203.717 13.2285C203.281 13.0397 202.727 12.8477 202.057 12.6523C201.354 12.444 200.719 12.2129 200.152 11.959C199.586 11.6986 199.101 11.4023 198.697 11.0703C198.294 10.7383 197.984 10.3574 197.77 9.92773C197.555 9.49805 197.447 9.00651 197.447 8.45312C197.447 7.89974 197.561 7.38867 197.789 6.91992C198.017 6.45117 198.342 6.04427 198.766 5.69922C199.195 5.34766 199.706 5.07422 200.299 4.87891C200.891 4.68359 201.552 4.58594 202.281 4.58594C203.349 4.58594 204.254 4.79102 204.996 5.20117C205.745 5.60482 206.314 6.13542 206.705 6.79297C207.096 7.44401 207.291 8.14062 207.291 8.88281H205.416C205.416 8.34896 205.302 7.87695 205.074 7.4668C204.846 7.05013 204.501 6.72461 204.039 6.49023C203.577 6.24935 202.991 6.12891 202.281 6.12891C201.611 6.12891 201.057 6.22982 200.621 6.43164C200.185 6.63346 199.859 6.9069 199.645 7.25195C199.436 7.59701 199.332 7.99089 199.332 8.43359C199.332 8.73307 199.394 9.00651 199.518 9.25391C199.648 9.49479 199.846 9.7194 200.113 9.92773C200.387 10.1361 200.732 10.3281 201.148 10.5039C201.572 10.6797 202.076 10.849 202.662 11.0117C203.469 11.2396 204.166 11.4935 204.752 11.7734C205.338 12.0534 205.82 12.3691 206.197 12.7207C206.581 13.0658 206.865 13.4596 207.047 13.9023C207.236 14.3385 207.33 14.8333 207.33 15.3867C207.33 15.9661 207.213 16.4902 206.979 16.959C206.744 17.4277 206.409 17.8281 205.973 18.1602C205.536 18.4922 205.012 18.7493 204.4 18.9316C203.795 19.1074 203.118 19.1953 202.369 19.1953C201.712 19.1953 201.064 19.1042 200.426 18.9219C199.794 18.7396 199.218 18.4661 198.697 18.1016C198.183 17.737 197.77 17.2878 197.457 16.7539C197.151 16.2135 196.998 15.5885 196.998 14.8789H198.873C198.873 15.3672 198.967 15.7871 199.156 16.1387C199.345 16.4837 199.602 16.7702 199.928 16.998C200.26 17.2259 200.634 17.3952 201.051 17.5059C201.474 17.61 201.913 17.6621 202.369 17.6621C203.027 17.6621 203.583 17.571 204.039 17.3887C204.495 17.2064 204.84 16.946 205.074 16.6074C205.315 16.2689 205.436 15.8685 205.436 15.4062Z" fill="white"/>
</svg>
